<svg width="62" height="62" viewBox="0 0 62 62" fill="none" xmlns="http://www.w3.org/2000/svg">
<g clip-path="url(#clip0)">
<path d="M13.5625 46.2578C13.2442 46.2578 12.9315 46.1282 12.7063 45.903C12.4812 45.6779 12.3516 45.3652 12.3516 45.0469C12.3516 44.7285 12.4812 44.4159 12.7063 44.1907C12.9315 43.9655 13.2442 43.8359 13.5625 43.8359C13.8808 43.8359 14.1935 43.9655 14.4187 44.1907C14.6438 44.4159 14.7734 44.7285 14.7734 45.0469C14.7734 45.3652 14.6438 45.6779 14.4187 45.903C14.1935 46.1282 13.8808 46.2578 13.5625 46.2578Z" fill="#55328C"/>
<path d="M46.1509 22.2269C44.0743 19.4015 41.2788 17.2871 38.0234 16.0582V12.02C38.0234 11.3516 37.4814 10.809 36.8125 10.809H34.6328V7.26562H36.6886L39.3999 9.06973C39.6043 9.20596 39.838 9.27219 40.0702 9.27219C40.3829 9.27219 40.6932 9.15157 40.9268 8.91789L43.387 6.4577C43.6141 6.23065 43.7418 5.92271 43.7418 5.60153C43.7418 5.28035 43.6141 4.97241 43.387 4.74536L38.9964 0.354767C38.7689 0.127716 38.461 0 38.1403 0H24.3129C23.6445 0 23.1019 0.542084 23.1019 1.21094V6.05469C23.1019 6.72354 23.6445 7.26562 24.3129 7.26562H27.3672V10.809H25.1875C24.5186 10.809 23.9766 11.3516 23.9766 12.02V16.0582C20.7212 17.2871 17.9257 19.402 15.8491 22.2269C13.5611 25.3389 12.3516 29.0256 12.3516 32.8883V40.2637C12.3516 40.9325 12.8936 41.4746 13.5625 41.4746C14.2314 41.4746 14.7734 40.9325 14.7734 40.2637V32.8883C14.7734 26.099 19.0893 20.1687 25.5319 18.0747H36.4681C42.9107 20.1687 47.2266 26.099 47.2266 32.8883V54.6942C47.2266 57.3871 45.0355 59.5781 42.3426 59.5781H19.6574C16.9645 59.5781 14.7734 57.3871 14.7734 54.6942V49.5879C14.7734 48.919 14.2314 48.377 13.5625 48.377C12.8936 48.377 12.3516 48.919 12.3516 49.5879V54.6942C12.3516 58.7224 15.6291 62 19.6574 62H42.3426C46.3709 62 49.6484 58.7224 49.6484 54.6942V32.8883C49.6484 29.0256 48.4389 25.3389 46.1509 22.2269ZM25.5238 2.42188H37.6384L40.8181 5.60153L39.9155 6.50406L37.7254 5.04668C37.5268 4.91423 37.2936 4.84375 37.0547 4.84375H25.5238V2.42188ZM29.7891 7.26562H32.2109V10.809H29.7891V7.26562ZM26.3984 15.6528V13.2309H35.6016V15.6528H26.3984Z" fill="#55328C"/>
<path d="M41.6562 55.9051C40.9874 55.9051 40.4453 55.3625 40.4453 54.6942V43.8359C40.4453 43.1671 40.9874 42.625 41.6562 42.625C42.3251 42.625 42.8672 43.1671 42.8672 43.8359V54.6942C42.8672 55.3625 42.3251 55.9051 41.6562 55.9051Z" fill="#55328C"/>
<path d="M41.6562 40.8086C41.3379 40.8086 41.0252 40.679 40.8001 40.4538C40.5749 40.2287 40.4453 39.916 40.4453 39.5977C40.4453 39.2793 40.5749 38.9666 40.8001 38.7415C41.0252 38.5163 41.3379 38.3867 41.6562 38.3867C41.9746 38.3867 42.2873 38.5163 42.5124 38.7415C42.7376 38.9666 42.8672 39.2793 42.8672 39.5977C42.8672 39.916 42.7376 40.2287 42.5124 40.4538C42.2873 40.679 41.9746 40.8086 41.6562 40.8086Z" fill="#55328C"/>
</g>
<defs>
<clipPath id="clip0">
<rect width="62" height="62" fill="white"/>
</clipPath>
</defs>
</svg>
