<svg width="360" height="166" viewBox="0 0 360 166" fill="none" xmlns="http://www.w3.org/2000/svg">
<path fill-rule="evenodd" clip-rule="evenodd" d="M367.956 24.5061L353.567 28.5467C339.178 32.5873 310.4 40.6686 283.735 34.6172C257.07 28.5657 232.518 8.38161 204.344 12.4249C176.17 16.4683 144.372 44.7391 116.802 44.7445C89.231 44.7499 65.887 16.49 40.1278 4.3817C14.3686 -7.7266 -13.8059 -3.68326 -27.8931 -1.6616L-41.9803 0.360074L-23.031 -126.362L-9.54763 -124.345C3.93578 -122.329 30.9026 -118.297 57.8695 -114.264C84.8363 -110.232 111.803 -106.199 138.77 -102.167C165.737 -98.1342 192.704 -94.1017 219.67 -90.0693C246.637 -86.0368 273.604 -82.0043 300.571 -77.9718C327.538 -73.9393 354.505 -69.9069 367.988 -67.8906L381.471 -65.8744L367.956 24.5061Z" fill="#0099FF" fill-opacity="0.4"/>
<path fill-rule="evenodd" clip-rule="evenodd" d="M553.989 106.733L538.974 90.9467C524.534 75.2299 495.078 43.7271 464.378 22.5569C433.103 1.3173 401.157 -9.52045 366.722 0.306821C332.286 10.1341 295.361 40.6264 261.755 43.5653C228.15 46.5043 197.29 21.8205 164.099 21.3153C130.909 20.81 94.8131 44.414 61.6227 43.9088C28.4323 43.4035 -1.85303 18.7891 -35.6185 18.2146C-68.8088 17.7093 -104.904 41.3133 -122.665 53.1499L-141 64.9172L-106.306 -223L-89.631 -220.991C-73.5308 -219.051 -40.7554 -215.101 -7.98 -211.152C25.3704 -207.133 58.1458 -203.184 90.9213 -199.234C123.697 -195.285 156.472 -191.335 189.247 -187.386C222.023 -183.437 255.373 -179.418 288.149 -175.468C320.924 -171.519 353.7 -167.57 386.475 -163.62C419.25 -159.671 452.026 -155.721 485.376 -151.703C518.152 -147.753 550.927 -143.804 567.027 -141.864L583.702 -139.854L553.989 106.733Z" fill="#7D53DE" fill-opacity="0.3"/>
<path fill-rule="evenodd" clip-rule="evenodd" d="M477.702 114.063L462.44 111.287C446.715 108.51 416.19 102.958 385.202 75.1954C354.215 47.433 323.69 -2.53927 292.702 -2.53927C261.715 -2.53926 231.19 47.433 200.202 58.538C169.215 69.643 138.69 41.8806 107.702 33.5519C76.7149 25.2231 46.1899 36.3281 15.2024 36.3281C-15.7851 36.3281 -46.3101 25.2232 -62.0351 19.6707L-77.2976 14.1182L-77.2976 -162.937L-62.0351 -162.937C-46.3101 -162.937 -15.7851 -162.937 15.2024 -162.937C46.1899 -162.937 76.7149 -162.937 107.702 -162.937C138.69 -162.937 169.215 -162.937 200.202 -162.937C231.19 -162.937 261.715 -162.937 292.702 -162.937C323.69 -162.937 354.215 -162.937 385.202 -162.937C416.19 -162.937 446.715 -162.937 462.44 -162.937L477.702 -162.937L477.702 114.063Z" fill="#7D53DE" fill-opacity="0.5"/>
<g filter="url(#filter0_dd)">
<circle cx="179.5" cy="92.5" r="63.5" fill="#FCFAFF"/>
</g>
<path fill-rule="evenodd" clip-rule="evenodd" d="M191.553 108.133C191.889 108.525 192.337 108.692 192.784 108.692C192.952 108.692 193.176 108.692 193.344 108.581C193.959 108.357 194.407 107.685 194.407 107.014V78.1453C194.407 77.1942 193.679 76.4669 192.728 76.4669C191.777 76.4669 191.05 77.1942 191.05 78.1453V93.6871C190.292 93.1709 189.747 92.4895 189.177 91.7767L189.148 91.7405C188.365 90.6775 187.413 89.5026 185.847 89.1669C183.274 88.6524 181.34 89.5625 180.089 90.5329L167.776 76.8586C167.328 76.355 166.601 76.1872 165.93 76.411C165.314 76.6348 164.867 77.3061 164.867 77.9775V107.014C164.867 107.965 165.594 108.692 166.545 108.692C167.496 108.692 168.223 107.965 168.223 107.014V92.6498C169.071 93.1768 169.653 93.9051 170.265 94.6695L170.294 94.7057C171.077 95.7687 172.028 96.9436 173.594 97.2793C174.154 97.3912 174.657 97.4471 175.105 97.4471C177.397 97.4471 179.04 96.3097 180.007 95.3688L191.553 108.133ZM186.574 93.8105C187.492 94.9786 188.752 96.5822 191.05 97.4151V102.706L182.344 93.0376C183.02 92.5865 183.979 92.223 185.176 92.4678C185.567 92.5237 186.071 93.1392 186.574 93.8105ZM177.752 92.8755L168.223 82.3414V88.9722C170.628 89.7865 171.927 91.4394 172.867 92.6357C173.371 93.307 173.874 93.9225 174.266 93.9784C175.926 94.318 177.128 93.4869 177.752 92.8755ZM161.006 100.371C160.372 100.371 159.887 99.8095 159.887 99.0754V89.3582C159.887 88.624 160.372 88.0626 161.006 88.0626C161.64 88.0626 162.125 88.624 162.125 89.3582V99.0754C162.125 99.8095 161.603 100.371 161.006 100.371ZM155.691 97.0141C154.899 97.0141 154.293 96.4385 154.293 95.6859V92.1882C154.293 91.4355 154.899 90.8599 155.691 90.8599C156.484 90.8599 157.09 91.4355 157.09 92.1882V95.6859C157.09 96.4385 156.437 97.0141 155.691 97.0141ZM149.257 96.7573C149.257 97.5369 149.742 98.133 150.376 98.133C150.973 98.133 151.495 97.5369 151.495 96.7573V91.1167C151.495 90.3371 151.011 89.741 150.376 89.741C149.742 89.741 149.257 90.3371 149.257 91.1167V96.7573ZM145.341 95.3357C144.707 95.3357 144.222 94.746 144.222 93.9748V93.3397C144.222 92.5686 144.707 91.9789 145.341 91.9789C145.975 91.9789 146.46 92.5686 146.46 93.3397V93.9748C146.46 94.7006 145.975 95.3357 145.341 95.3357ZM199.61 89.3583C199.61 88.6241 199.125 88.0627 198.491 88.0627C197.894 88.0627 197.372 88.6241 197.372 89.3583V99.0755C197.372 99.8096 197.857 100.371 198.491 100.371C199.125 100.371 199.61 99.8096 199.61 99.0755V89.3583ZM203.806 91.4196C204.598 91.4196 205.205 91.9952 205.205 92.7478V96.2455C205.205 96.9982 204.598 97.5738 203.806 97.5738C203.013 97.5738 202.407 96.9982 202.407 96.2455V92.7478C202.407 91.9952 203.06 91.4196 203.806 91.4196ZM210.24 91.6764C210.24 90.8968 209.755 90.3006 209.121 90.3006C208.524 90.3006 208.002 90.8968 208.002 91.6764V97.317C208.002 98.0966 208.487 98.6927 209.121 98.6927C209.755 98.6927 210.24 98.0966 210.24 97.317V91.6764ZM214.156 93.098C214.79 93.098 215.275 93.6877 215.275 94.4589V95.0939C215.275 95.8651 214.79 96.4548 214.156 96.4548C213.522 96.4548 213.037 95.8651 213.037 95.0939V94.4589C213.037 93.7331 213.522 93.098 214.156 93.098Z" fill="url(#paint0_linear)"/>
<defs>
<filter id="filter0_dd" x="106" y="19" width="147" height="147" filterUnits="userSpaceOnUse" color-interpolation-filters="sRGB">
<feFlood flood-opacity="0" result="BackgroundImageFix"/>
<feColorMatrix in="SourceAlpha" type="matrix" values="0 0 0 0 0 0 0 0 0 0 0 0 0 0 0 0 0 0 127 0"/>
<feOffset dx="-4" dy="-4"/>
<feGaussianBlur stdDeviation="3"/>
<feColorMatrix type="matrix" values="0 0 0 0 0.44549 0 0 0 0 0.263529 0 0 0 0 0.73098 0 0 0 0.05 0"/>
<feBlend mode="normal" in2="BackgroundImageFix" result="effect1_dropShadow"/>
<feColorMatrix in="SourceAlpha" type="matrix" values="0 0 0 0 0 0 0 0 0 0 0 0 0 0 0 0 0 0 127 0"/>
<feOffset dx="4" dy="4"/>
<feGaussianBlur stdDeviation="3"/>
<feColorMatrix type="matrix" values="0 0 0 0 0.44549 0 0 0 0 0.263529 0 0 0 0 0.73098 0 0 0 0.05 0"/>
<feBlend mode="normal" in2="effect1_dropShadow" result="effect2_dropShadow"/>
<feBlend mode="normal" in="SourceGraphic" in2="effect2_dropShadow" result="shape"/>
</filter>
<linearGradient id="paint0_linear" x1="176.093" y1="78.4132" x2="149.475" y2="113.456" gradientUnits="userSpaceOnUse">
<stop stop-color="#4776E6"/>
<stop offset="1" stop-color="#8E54E9"/>
</linearGradient>
</defs>
</svg>
