<svg width="360" height="640" viewBox="0 0 360 640" fill="none" xmlns="http://www.w3.org/2000/svg">
  <g opacity="0.5">
    <mask id="mask0" mask-type="alpha" maskUnits="userSpaceOnUse" x="-544" y="229" width="1369" height="537">
      <rect x="-544" y="229" width="1368.59" height="537" fill="#F3F1F5" />
    </mask>
    <g mask="url(#mask0)">
      <path opacity="0.1"
        d="M-319.52 500.515C-430.998 497.861 -537.007 622.496 -565.696 674.466L-565.696 838.719L871.447 838.718L871.447 428.777C738.448 424.781 696.389 334.65 594.439 334.65C492.489 334.65 400.445 465.128 348.531 533.685C305.907 594.722 251.534 607.77 229.675 606.664C128.033 609.318 50.7087 472.869 24.7518 404.313C1.80035 327.352 -24.039 311.43 -36.7253 311.43C-58.0105 311.381 -90.0054 333.987 -122.793 410.947C-155.581 487.908 -207.495 509.359 -229.353 510.465C-259.927 512.012 -296.295 500.514 -319.52 500.515Z"
        fill="#F3F1F5" />
      <path
        d="M-565.384 476.074C-520.074 461.129 -486.111 459.011 -458.713 464.171C-431.319 469.33 -410.388 481.783 -391.156 496.162C-352.751 524.876 -320.938 561.548 -258.156 561.548L-258.156 559.548C-320.085 559.548 -351.194 523.542 -389.958 494.561C-409.31 480.092 -430.526 467.444 -458.343 462.205C-486.157 456.967 -520.472 459.154 -566.01 474.175L-565.384 476.074ZM-258.156 561.548C-226.855 561.548 -205.506 556.055 -188.844 547.543C-172.203 539.041 -160.305 527.555 -147.919 515.745C-135.52 503.923 -122.602 491.744 -103.83 481.621C-85.0645 471.502 -60.3965 463.412 -24.5085 459.889L-24.704 457.899C-60.8083 461.443 -85.7414 469.594 -104.779 479.86C-123.81 490.123 -136.897 502.473 -149.299 514.298C-161.713 526.135 -173.411 537.412 -189.754 545.762C-206.078 554.101 -227.101 559.548 -258.156 559.548L-258.156 561.548ZM-24.5085 459.889C47.0569 452.863 105.439 491.831 160.731 532.833C188.333 553.301 215.181 574.285 242.417 590.133C269.667 605.988 297.41 616.768 326.852 616.768L326.852 614.768C297.907 614.768 270.522 604.171 243.423 588.404C216.311 572.629 189.59 551.744 161.922 531.227C106.675 490.258 47.7151 450.789 -24.704 457.899L-24.5085 459.889ZM326.852 616.768C356.399 616.768 381.932 602.305 404.199 580.776C426.46 559.253 445.541 530.589 462.206 501.999C470.541 487.699 478.281 473.401 485.514 460.011C492.751 446.614 499.477 434.135 505.798 423.442C512.124 412.741 518.013 403.884 523.566 397.712C529.158 391.497 534.215 388.223 538.861 388.223L538.861 386.223C533.303 386.223 527.732 390.091 522.079 396.374C516.388 402.701 510.417 411.699 504.077 422.424C497.732 433.157 490.986 445.675 483.755 459.061C476.52 472.453 468.794 486.724 460.478 500.992C443.839 529.538 424.869 558.01 402.808 579.339C380.753 600.662 355.693 614.768 326.852 614.768L326.852 616.768ZM538.861 388.223C548.443 388.223 554.429 394.96 559.588 405.759C562.159 411.138 564.477 417.429 566.917 424.223C569.351 431.002 571.903 438.272 574.926 445.542C580.972 460.082 588.947 474.735 601.824 485.749C614.727 496.784 632.468 504.093 657.903 504.093L657.903 502.093C632.888 502.093 615.624 494.919 603.124 484.229C590.599 473.516 582.772 459.202 576.773 444.774C573.773 437.561 571.24 430.347 568.799 423.547C566.363 416.763 564.013 410.38 561.393 404.896C556.172 393.969 549.687 386.223 538.861 386.223L538.861 388.223ZM657.903 504.093C708.609 504.093 749.78 484.875 790.802 465.436C831.867 445.978 872.78 426.302 923.224 424.981L923.172 422.982C872.242 424.315 830.96 444.195 789.946 463.629C748.89 483.083 708.101 502.093 657.903 502.093L657.903 504.093Z"
        fill="#F3F1F5" />
      <path
        d="M-320.93 505.085L-320.954 506.084C-320.946 506.084 -320.938 506.085 -320.93 506.085L-320.93 505.085ZM-231.169 515.035L-231.119 516.034L-231.169 515.035ZM-39.4073 316L-39.4097 317L-39.4073 317L-39.4073 316ZM21.7933 408.883L20.8347 409.168C20.8415 409.19 20.8491 409.213 20.8576 409.236L21.7933 408.883ZM225.796 611.234L225.846 610.235C225.821 610.234 225.795 610.234 225.769 610.234L225.796 611.234ZM344.117 538.255L343.318 537.653C343.311 537.663 343.303 537.673 343.296 537.684L344.117 538.255ZM-565.124 679.517C-550.906 653.646 -517.463 609.588 -473.723 572.337C-429.967 535.073 -376.077 504.766 -320.954 506.084L-320.907 504.085C-376.761 502.749 -431.125 533.432 -475.02 570.815C-518.931 608.211 -552.534 652.455 -566.876 678.554L-565.124 679.517ZM-320.93 506.085C-309.479 506.084 -294.765 508.935 -278.961 511.625C-263.22 514.306 -246.46 516.813 -231.119 516.034L-231.22 514.036C-246.315 514.803 -262.875 512.335 -278.626 509.654C-294.314 506.983 -309.261 504.084 -320.931 504.085L-320.93 506.085ZM-231.119 516.034C-208.909 514.905 -156.93 493.155 -124.168 415.908L-126.009 415.127C-158.528 491.8 -209.909 512.953 -231.22 514.036L-231.119 516.034ZM-124.168 415.908C-107.875 377.492 -91.8102 352.72 -77.2333 337.574C-62.6524 322.423 -49.6363 316.976 -39.4097 317L-39.405 315C-50.368 314.974 -63.8722 320.806 -78.6743 336.187C-93.4804 351.571 -109.661 376.583 -126.009 415.127L-124.168 415.908ZM-39.4073 317C-33.5136 317 -24.1836 320.733 -13.4204 334.205C-2.66565 347.667 9.4303 370.753 20.8347 409.168L22.752 408.598C11.3081 370.051 -0.881653 346.696 -11.8578 332.957C-22.8257 319.228 -32.6719 315 -39.4073 315L-39.4073 317ZM20.8576 409.236C33.8069 443.591 59.5613 494.946 94.7704 537.401C129.953 579.823 174.759 613.573 225.822 612.234L225.769 610.234C175.647 611.549 131.372 578.401 96.3099 536.124C61.2742 493.878 35.62 442.731 22.7291 408.53L20.8576 409.236ZM225.745 612.233C247.86 613.357 302.314 600.138 344.938 538.825L343.296 537.684C301.055 598.446 247.252 611.323 225.846 610.235L225.745 612.233ZM344.915 538.857C370.776 504.551 406.551 454.867 448.539 413.743C490.553 372.593 538.587 340.22 588.92 340.22L588.92 338.22C537.761 338.22 489.233 371.086 447.139 412.314C405.018 453.569 369.138 503.402 343.318 537.653L344.915 538.857ZM588.92 340.22C639.35 340.22 674.956 362.59 714.708 385.65C754.447 408.702 798.194 432.34 864.652 434.346L864.713 432.347C798.77 430.357 755.382 406.932 715.712 383.92C676.056 360.916 639.98 338.22 588.92 338.22L588.92 340.22Z"
        fill="#F3F1F5" />
    </g>
  </g>
</svg>