<svg width="360" height="411" viewBox="0 0 360 411" fill="none" xmlns="http://www.w3.org/2000/svg">
<g opacity="0.5">
<mask id="mask0" mask-type="alpha" maskUnits="userSpaceOnUse" x="-544" y="0" width="1369" height="537">
<rect x="-544" y="0.00012207" width="1368.59" height="537" fill="#F3F1F5"/>
</mask>
<g mask="url(#mask0)">
<path opacity="0.1" d="M-319.52 271.515C-430.998 268.861 -537.007 393.496 -565.696 445.466L-565.696 609.719L871.447 609.718L871.447 199.777C738.448 195.781 696.389 105.65 594.439 105.65C492.489 105.65 400.445 236.128 348.531 304.685C305.907 365.722 251.534 378.77 229.675 377.664C128.033 380.318 50.7087 243.869 24.7518 175.313C1.80035 98.3516 -24.039 82.43 -36.7253 82.4301C-58.0105 82.3805 -90.0054 104.987 -122.793 181.947C-155.581 258.908 -207.495 280.359 -229.353 281.465C-259.927 283.012 -296.295 271.514 -319.52 271.515Z" fill="#F3F1F5"/>
<path d="M-565.384 247.074C-520.074 232.129 -486.111 230.011 -458.713 235.171C-431.319 240.33 -410.388 252.783 -391.156 267.162C-352.751 295.876 -320.938 332.548 -258.156 332.548L-258.156 330.548C-320.085 330.548 -351.194 294.542 -389.958 265.561C-409.31 251.092 -430.526 238.444 -458.343 233.205C-486.157 227.967 -520.472 230.154 -566.01 245.175L-565.384 247.074ZM-258.156 332.548C-226.855 332.548 -205.506 327.055 -188.844 318.543C-172.203 310.041 -160.305 298.555 -147.919 286.745C-135.52 274.923 -122.602 262.744 -103.83 252.621C-85.0645 242.502 -60.3965 234.412 -24.5085 230.889L-24.704 228.899C-60.8083 232.443 -85.7414 240.594 -104.779 250.86C-123.81 261.123 -136.897 273.473 -149.299 285.298C-161.713 297.135 -173.411 308.412 -189.754 316.762C-206.078 325.101 -227.101 330.548 -258.156 330.548L-258.156 332.548ZM-24.5085 230.889C47.0569 223.863 105.439 262.831 160.731 303.833C188.333 324.301 215.181 345.285 242.417 361.133C269.667 376.988 297.41 387.768 326.852 387.768L326.852 385.768C297.907 385.768 270.522 375.171 243.423 359.404C216.311 343.629 189.59 322.744 161.922 302.227C106.675 261.258 47.7151 221.789 -24.704 228.899L-24.5085 230.889ZM326.852 387.768C356.399 387.768 381.932 373.305 404.199 351.776C426.46 330.253 445.541 301.589 462.206 272.999C470.541 258.699 478.281 244.401 485.514 231.011C492.751 217.614 499.477 205.135 505.798 194.442C512.124 183.741 518.013 174.884 523.566 168.712C529.158 162.497 534.215 159.223 538.861 159.223L538.861 157.223C533.303 157.223 527.732 161.091 522.079 167.374C516.388 173.701 510.417 182.699 504.077 193.424C497.732 204.157 490.986 216.675 483.755 230.061C476.52 243.453 468.794 257.724 460.478 271.992C443.839 300.538 424.869 329.01 402.808 350.339C380.753 371.662 355.693 385.768 326.852 385.768L326.852 387.768ZM538.861 159.223C548.443 159.223 554.429 165.96 559.588 176.759C562.159 182.138 564.477 188.429 566.917 195.223C569.351 202.002 571.903 209.272 574.926 216.542C580.972 231.082 588.947 245.735 601.824 256.749C614.727 267.784 632.468 275.093 657.903 275.093L657.903 273.093C632.888 273.093 615.624 265.919 603.124 255.229C590.599 244.516 582.772 230.202 576.773 215.774C573.773 208.561 571.24 201.347 568.799 194.547C566.363 187.763 564.013 181.38 561.393 175.896C556.172 164.969 549.687 157.223 538.861 157.223L538.861 159.223ZM657.903 275.093C708.609 275.093 749.78 255.875 790.802 236.436C831.867 216.978 872.78 197.302 923.224 195.981L923.172 193.982C872.242 195.315 830.96 215.195 789.946 234.629C748.89 254.083 708.101 273.093 657.903 273.093L657.903 275.093Z" fill="#F3F1F5"/>
<path d="M-320.93 276.085L-320.954 277.084C-320.946 277.084 -320.938 277.085 -320.93 277.085L-320.93 276.085ZM-231.169 286.035L-231.119 287.034L-231.169 286.035ZM-39.4073 87.0001L-39.4097 88.0001L-39.4073 88.0001L-39.4073 87.0001ZM21.7933 179.883L20.8347 180.168C20.8415 180.19 20.8491 180.213 20.8576 180.236L21.7933 179.883ZM225.796 382.234L225.846 381.235C225.821 381.234 225.795 381.234 225.769 381.234L225.796 382.234ZM344.117 309.255L343.318 308.653C343.311 308.663 343.303 308.673 343.296 308.684L344.117 309.255ZM-565.124 450.517C-550.906 424.646 -517.463 380.588 -473.723 343.337C-429.967 306.073 -376.077 275.766 -320.954 277.084L-320.907 275.085C-376.761 273.749 -431.125 304.432 -475.02 341.815C-518.931 379.211 -552.534 423.455 -566.876 449.554L-565.124 450.517ZM-320.93 277.085C-309.479 277.084 -294.765 279.935 -278.961 282.625C-263.22 285.306 -246.46 287.813 -231.119 287.034L-231.22 285.036C-246.315 285.803 -262.875 283.335 -278.626 280.654C-294.314 277.983 -309.261 275.084 -320.931 275.085L-320.93 277.085ZM-231.119 287.034C-208.909 285.905 -156.93 264.155 -124.168 186.908L-126.009 186.127C-158.528 262.8 -209.909 283.953 -231.22 285.036L-231.119 287.034ZM-124.168 186.908C-107.875 148.492 -91.8102 123.72 -77.2333 108.574C-62.6524 93.423 -49.6363 87.9761 -39.4097 88.0001L-39.405 86.0001C-50.368 85.9744 -63.8722 91.8062 -78.6743 107.187C-93.4804 122.571 -109.661 147.583 -126.009 186.127L-124.168 186.908ZM-39.4073 88.0001C-33.5136 88 -24.1836 91.7327 -13.4204 105.205C-2.66565 118.667 9.4303 141.753 20.8347 180.168L22.752 179.598C11.3081 141.051 -0.881653 117.696 -11.8578 103.957C-22.8257 90.2281 -32.6719 86 -39.4073 86.0001L-39.4073 88.0001ZM20.8576 180.236C33.8069 214.591 59.5613 265.946 94.7704 308.401C129.953 350.823 174.759 384.573 225.822 383.234L225.769 381.234C175.647 382.549 131.372 349.401 96.3099 307.124C61.2742 264.878 35.62 213.731 22.7291 179.53L20.8576 180.236ZM225.745 383.233C247.86 384.357 302.314 371.138 344.938 309.825L343.296 308.684C301.055 369.446 247.252 382.323 225.846 381.235L225.745 383.233ZM344.915 309.857C370.776 275.551 406.551 225.867 448.539 184.743C490.553 143.593 538.587 111.22 588.92 111.22L588.92 109.22C537.761 109.22 489.233 142.086 447.139 183.314C405.018 224.569 369.138 274.402 343.318 308.653L344.915 309.857ZM588.92 111.22C639.35 111.22 674.956 133.59 714.708 156.65C754.447 179.702 798.194 203.34 864.652 205.346L864.713 203.347C798.77 201.357 755.382 177.932 715.712 154.92C676.056 131.916 639.98 109.22 588.92 109.22L588.92 111.22Z" fill="#F3F1F5"/>
</g>
</g>
</svg>
