<svg width="1440" height="1024" viewBox="0 0 1440 1024" fill="none" xmlns="http://www.w3.org/2000/svg">
<rect width="1440" height="1024" fill="#FCFAFF"/>
<path opacity="0.4" fill-rule="evenodd" clip-rule="evenodd" d="M-171 1005.7L-112.7 979.476C-54.4 953.253 62.2 900.806 178.8 909.547C295.4 918.289 412 988.217 528.6 953.253C645.2 918.289 761.8 778.432 878.4 760.95C995 743.468 1111.6 848.36 1228.2 883.324C1344.8 918.289 1461.4 883.324 1519.7 865.842L1578 848.36V1397H1519.7C1461.4 1397 1344.8 1397 1228.2 1397C1111.6 1397 995 1397 878.4 1397C761.8 1397 645.2 1397 528.6 1397C412 1397 295.4 1397 178.8 1397C62.2 1397 -54.4 1397 -112.7 1397H-171V1005.7Z" fill="#0099FF" fill-opacity="0.4"/>
<path opacity="0.4" fill-rule="evenodd" clip-rule="evenodd" d="M-772 598.144L-700.491 657.525C-631.447 716.906 -490.895 835.668 -350.342 909.895C-207.324 984.121 -66.7717 1013.81 73.7808 954.431C214.333 895.049 354.886 746.597 495.438 716.906C635.991 687.215 779.009 776.287 919.562 761.442C1060.11 746.597 1200.67 627.834 1341.22 612.989C1481.77 598.144 1622.32 687.215 1765.34 672.37C1905.9 657.525 2046.45 538.762 2115.49 479.381L2187 420V1661H2115.49C2046.45 1661 1905.9 1661 1765.34 1661C1622.32 1661 1481.77 1661 1341.22 1661C1200.67 1661 1060.11 1661 919.562 1661C779.009 1661 635.991 1661 495.438 1661C354.886 1661 214.333 1661 73.7808 1661C-66.7717 1661 -207.324 1661 -350.342 1661C-490.895 1661 -631.447 1661 -700.491 1661H-772L-772 598.144Z" fill="#7D53DE" fill-opacity="0.3"/>
<path opacity="0.4" fill-rule="evenodd" clip-rule="evenodd" d="M-481 494L-415.853 505.887C-348.731 517.773 -218.436 541.547 -86.1667 660.414C46.1025 779.281 176.398 993.242 308.667 993.242C440.936 993.242 571.231 779.281 703.5 731.734C835.769 684.187 966.064 803.055 1098.33 838.715C1230.6 874.375 1360.9 826.828 1493.17 826.828C1625.44 826.828 1755.73 874.375 1822.85 898.148L1888 921.922V1680H1822.85C1755.73 1680 1625.44 1680 1493.17 1680C1360.9 1680 1230.6 1680 1098.33 1680C966.064 1680 835.769 1680 703.5 1680C571.231 1680 440.936 1680 308.667 1680C176.398 1680 46.1025 1680 -86.1667 1680C-218.436 1680 -348.731 1680 -415.853 1680H-481V494Z" fill="#7D53DE" fill-opacity="0.5"/>
</svg>
