<svg width="360" height="149" viewBox="0 0 360 149" fill="none" xmlns="http://www.w3.org/2000/svg">
<path fill-rule="evenodd" clip-rule="evenodd" d="M367.956 24.5061L353.567 28.5467C339.178 32.5873 310.4 40.6686 283.735 34.6172C257.07 28.5657 232.518 8.38161 204.344 12.4249C176.17 16.4683 144.372 44.7391 116.802 44.7445C89.231 44.7499 65.887 16.49 40.1278 4.3817C14.3686 -7.7266 -13.8059 -3.68326 -27.8931 -1.6616L-41.9803 0.360074L-23.031 -126.362L-9.54763 -124.345C3.93578 -122.329 30.9026 -118.297 57.8695 -114.264C84.8363 -110.232 111.803 -106.199 138.77 -102.167C165.737 -98.1342 192.704 -94.1017 219.67 -90.0693C246.637 -86.0368 273.604 -82.0043 300.571 -77.9718C327.538 -73.9393 354.505 -69.9069 367.988 -67.8906L381.471 -65.8744L367.956 24.5061Z" fill="#0099FF" fill-opacity="0.4"/>
<path fill-rule="evenodd" clip-rule="evenodd" d="M553.989 106.733L538.974 90.9467C524.534 75.2299 495.078 43.7271 464.378 22.5569C433.103 1.3173 401.157 -9.52045 366.722 0.306821C332.286 10.1341 295.361 40.6264 261.755 43.5653C228.15 46.5043 197.29 21.8205 164.099 21.3153C130.909 20.81 94.8131 44.414 61.6227 43.9088C28.4323 43.4035 -1.85303 18.7891 -35.6185 18.2146C-68.8088 17.7093 -104.904 41.3133 -122.665 53.1499L-141 64.9172L-106.306 -223L-89.631 -220.991C-73.5308 -219.051 -40.7554 -215.101 -7.98 -211.152C25.3704 -207.133 58.1458 -203.184 90.9213 -199.234C123.697 -195.285 156.472 -191.335 189.247 -187.386C222.023 -183.437 255.373 -179.418 288.149 -175.468C320.924 -171.519 353.7 -167.57 386.475 -163.62C419.25 -159.671 452.026 -155.721 485.376 -151.703C518.152 -147.753 550.927 -143.804 567.027 -141.864L583.702 -139.854L553.989 106.733Z" fill="#7D53DE" fill-opacity="0.3"/>
<path fill-rule="evenodd" clip-rule="evenodd" d="M477.702 114.063L462.44 111.287C446.715 108.51 416.19 102.958 385.202 75.1954C354.215 47.433 323.69 -2.53927 292.702 -2.53927C261.715 -2.53926 231.19 47.433 200.202 58.538C169.215 69.643 138.69 41.8806 107.702 33.5519C76.7149 25.2231 46.1899 36.3281 15.2024 36.3281C-15.7851 36.3281 -46.3101 25.2232 -62.0351 19.6707L-77.2976 14.1182L-77.2976 -162.937L-62.0351 -162.937C-46.3101 -162.937 -15.7851 -162.937 15.2024 -162.937C46.1899 -162.937 76.7149 -162.937 107.702 -162.937C138.69 -162.937 169.215 -162.937 200.202 -162.937C231.19 -162.937 261.715 -162.937 292.702 -162.937C323.69 -162.937 354.215 -162.937 385.202 -162.937C416.19 -162.937 446.715 -162.937 462.44 -162.937L477.702 -162.937L477.702 114.063Z" fill="#7D53DE" fill-opacity="0.5"/>
</svg>
