<svg width="47" height="57" viewBox="0 0 47 57" fill="none" xmlns="http://www.w3.org/2000/svg">
<path d="M29.3348 24.0378V24.9302C29.3348 25.3914 28.961 25.7652 28.4999 25.7652C28.0388 25.7652 27.6649 25.3914 27.6649 24.9302V24.0378C27.6649 23.5767 28.0388 23.2029 28.4999 23.2029C28.961 23.2029 29.3348 23.5767 29.3348 24.0378Z" fill="#55328C"/>
<path d="M18.6257 24.0378V24.9302C18.6257 25.3914 18.2519 25.7652 17.7908 25.7652C17.3297 25.7652 16.9558 25.3914 16.9558 24.9302V24.0378C16.9558 23.5767 17.3297 23.2029 17.7908 23.2029C18.2519 23.2029 18.6257 23.5767 18.6257 24.0378Z" fill="#55328C"/>
<path d="M26.718 20.9594C26.7101 20.4983 27.0779 20.1181 27.5388 20.1106L31.2177 20.0487C31.6788 20.0408 32.0589 20.4084 32.0666 20.8695C32.0732 21.2605 31.8099 21.5932 31.4486 21.6901C31.3838 21.7074 31.3159 21.7172 31.2458 21.7183L27.5668 21.7802C27.1057 21.788 26.7257 21.4205 26.718 20.9594Z" fill="#55328C"/>
<path d="M14.8421 21.69C14.4808 21.5932 14.2175 21.2604 14.224 20.8694C14.2317 20.4084 14.6118 20.0409 15.0729 20.0486L18.7519 20.1105C19.2125 20.1181 19.5804 20.4983 19.5727 20.9594C19.565 21.4204 19.1849 21.7879 18.7238 21.7802L15.0448 21.7183C14.9747 21.7171 14.9069 21.7074 14.8421 21.69Z" fill="#55328C"/>
<path d="M3.09068 50.1231L12.3596 47.2266C13.5074 46.8679 14.2786 45.819 14.2786 44.6164V42.7787C14.2786 42.3176 14.6524 41.9438 15.1136 41.9438C15.5747 41.9438 15.9485 42.3176 15.9485 42.7787V44.6164C15.9485 46.0045 15.3105 47.2652 14.2687 48.0811C16.6159 50.4282 19.8067 51.7605 23.1453 51.7605C26.4774 51.7605 29.6761 50.4274 32.0227 48.0817C30.9804 47.2659 30.3421 46.0048 30.3421 44.6165V39.8721C28.1797 41.1465 25.7065 41.829 23.1453 41.829C19.5136 41.829 16.0582 40.4586 13.4158 37.9706C10.9783 35.6754 9.44374 32.6331 9.04385 29.3351H7.97409C7.01511 29.3351 6.08652 28.9361 5.42624 28.2403C4.7566 27.5347 4.41582 26.6094 4.46681 25.6352C4.53016 24.4254 5.22963 23.3863 6.24673 22.8053V9.75914C6.24673 4.37798 10.6247 0 16.006 0H27.6075C29.3849 0 30.9638 1.07309 31.6466 2.67722H32.962C36.8671 2.67722 40.0439 5.85419 40.0439 9.75914V19.9417C40.0439 20.4028 39.6701 20.7766 39.209 20.7766C38.7479 20.7766 38.374 20.4028 38.374 19.9417V9.75914C38.374 6.77498 35.9462 4.34714 32.962 4.34714H31.051C30.6704 4.34714 30.3381 4.08986 30.2427 3.72148C29.9298 2.51357 28.8461 1.66992 27.6075 1.66992H16.0061C11.5456 1.66992 7.91676 5.29877 7.91676 9.75914V22.3166C7.986 22.3129 8.05558 22.3105 8.12572 22.3105H8.86661C9.88248 22.3105 10.709 21.4841 10.709 20.4682V16.0061C10.709 13.5774 12.6849 11.6014 15.1136 11.6014C15.5747 11.6014 15.9485 11.9752 15.9485 12.4364C15.9485 12.8975 15.5747 13.2713 15.1136 13.2713C13.6056 13.2713 12.3789 14.4982 12.3789 16.0061V20.4682C12.3789 21.7772 11.6586 22.9203 10.5941 23.5244V25.8227C10.5941 26.8385 11.4205 27.6649 12.4363 27.6649H33.8543C34.8702 27.6649 35.6966 26.8385 35.6966 25.8227V23.5244C34.6321 22.9203 33.9118 21.7771 33.9118 20.4682V16.0061C33.9118 14.4982 32.6849 13.2713 31.1771 13.2713H18.6835C18.2224 13.2713 17.8486 12.8975 17.8486 12.4364C17.8486 11.9752 18.2224 11.6014 18.6835 11.6014H31.1771C33.6058 11.6014 35.5817 13.5774 35.5817 16.0061V20.4682C35.5817 21.4841 36.4082 22.3105 37.4241 22.3105H38.1649C40.119 22.3105 41.7261 23.7708 41.8237 25.6351C41.8747 26.6093 41.534 27.5346 40.8643 28.2402C40.204 28.936 39.2754 29.335 38.3165 29.335H37.2467C36.8468 32.6329 35.3123 35.6753 32.8747 37.9705C32.5961 38.2329 32.308 38.4819 32.0119 38.7191V44.6164C32.0119 45.819 32.7831 46.868 33.9309 47.2266L43.2 50.1231C45.0487 50.7008 46.2909 52.3903 46.2909 54.3272V56.165C46.2909 56.6262 45.9171 57 45.4559 57C44.9948 57 44.621 56.6262 44.621 56.165V54.3273C44.621 53.1248 43.8498 52.0758 42.7019 51.7171L37.2738 50.0208C35.689 52.0873 33.6461 53.8054 31.341 55.0038C28.8291 56.3098 25.9951 57 23.1453 57C20.311 57 17.4908 56.3168 14.9893 55.0244C12.6686 53.8253 10.611 52.0988 9.01757 50.0206L3.58887 51.7171C2.44108 52.0758 1.66991 53.1248 1.66991 54.3273V56.165C1.66991 56.6262 1.29607 57 0.834953 57C0.373833 57 -7.62939e-06 56.6262 -7.62939e-06 56.165V54.3273C-0.000118256 52.3905 1.24197 50.7009 3.09068 50.1231ZM8.92405 23.9791C8.92283 23.979 8.92294 23.9791 8.92405 23.9791V23.9791ZM8.92405 25.8228V23.9805H8.12561C7.07801 23.9805 6.18483 24.7619 6.13451 25.7225C6.10767 26.2347 6.28636 26.7206 6.6376 27.0907C6.98917 27.4611 7.46376 27.6652 7.97421 27.6652H9.44774C9.1161 27.1291 8.92405 26.498 8.92405 25.8228ZM38.3165 27.665C38.8268 27.665 39.3015 27.461 39.6531 27.0906C40.0043 26.7205 40.1829 26.2346 40.1562 25.7224C40.1058 24.7618 39.2127 23.9804 38.1651 23.9804H37.3666V25.8227C37.3666 26.4979 37.1746 27.129 36.843 27.6649H38.3165V27.665ZM35.5625 29.335H10.7282C10.8181 29.9859 10.9585 30.6202 11.1443 31.2347H26.715C27.1761 31.2347 27.5499 31.6085 27.5499 32.0696C27.5499 32.5307 27.1761 32.9046 26.715 32.9046H13.2672C15.64 34.6498 19.2708 35.6968 23.1453 35.6968C27.0201 35.6968 30.6506 34.6498 33.0235 32.9046H30.2845C29.8233 32.9046 29.4495 32.5307 29.4495 32.0696C29.4495 31.6085 29.8233 31.2347 30.2845 31.2347H35.1465C35.3322 30.6202 35.4726 29.9859 35.5625 29.335ZM33.5743 34.5616C30.9248 36.3425 27.1965 37.3667 23.1453 37.3667C19.0943 37.3667 15.3658 36.3424 12.7163 34.5615C14.976 37.9423 18.8268 40.1588 23.1453 40.1588C27.4639 40.1588 31.3147 37.9423 33.5743 34.5616ZM15.7559 53.5407C18.0537 54.728 20.5399 55.3301 23.1453 55.3301C27.9441 55.3301 32.515 53.1625 35.5648 49.4868L33.5822 48.8673C30.8949 51.7691 27.1036 53.4304 23.1452 53.4304C19.179 53.4304 15.3961 51.7719 12.7071 48.8677L10.7253 49.487C12.1106 51.1564 13.8343 52.5479 15.7559 53.5407Z" fill="#55328C"/>
</svg>
