<svg width="58" height="58" viewBox="0 0 58 58" fill="none" xmlns="http://www.w3.org/2000/svg">
<path d="M23.752 6.032V7H20.504V6.032H21.64V3.608C21.592 3.672 21.5173 3.73867 21.416 3.808C21.3147 3.872 21.2027 3.93333 21.08 3.992C20.9573 4.05067 20.8293 4.09867 20.696 4.136C20.5627 4.17333 20.4453 4.192 20.344 4.192V3.192C20.44 3.192 20.5573 3.16267 20.696 3.104C20.8347 3.04 20.9707 2.96533 21.104 2.88C21.2373 2.79467 21.3547 2.712 21.456 2.632C21.5573 2.54667 21.6187 2.48 21.64 2.432H22.736V6.032H23.752ZM24.1935 7.144C24.2308 7.144 24.2842 7.128 24.3535 7.096C24.4228 7.06933 24.4575 7.00267 24.4575 6.896V5.848H25.3375V7.088C25.3375 7.248 25.3002 7.37867 25.2255 7.48C25.1508 7.58667 25.0575 7.672 24.9455 7.736C24.8335 7.8 24.7108 7.84267 24.5775 7.864C24.4442 7.89067 24.3162 7.904 24.1935 7.904V7.144ZM28.1401 4.448C28.4068 4.448 28.6548 4.49333 28.8841 4.584C29.1135 4.66933 29.3108 4.792 29.4761 4.952C29.6468 5.112 29.7775 5.304 29.8681 5.528C29.9641 5.752 30.0121 6 30.0121 6.272C30.0121 6.56 29.9588 6.82133 29.8521 7.056C29.7455 7.29067 29.5988 7.49067 29.4121 7.656C29.2255 7.82667 29.0041 7.95733 28.7481 8.048C28.4921 8.144 28.2148 8.192 27.9161 8.192C27.5001 8.192 27.1268 8.104 26.7961 7.928C26.4708 7.752 26.2228 7.512 26.0521 7.208L26.6681 6.568C26.8228 6.776 27.0095 6.94133 27.2281 7.064C27.4521 7.18667 27.6841 7.248 27.9241 7.248C28.2121 7.248 28.4468 7.16267 28.6281 6.992C28.8148 6.816 28.9081 6.584 28.9081 6.296C28.9081 6.01867 28.8201 5.79467 28.6441 5.624C28.4735 5.45333 28.2548 5.368 27.9881 5.368C27.8121 5.368 27.6468 5.408 27.4921 5.488C27.3428 5.568 27.2228 5.67733 27.1321 5.816H26.1961C26.1961 5.8 26.2068 5.74133 26.2281 5.64C26.2495 5.53333 26.2761 5.4 26.3081 5.24C26.3401 5.07467 26.3748 4.89333 26.4121 4.696C26.4495 4.49333 26.4895 4.288 26.5321 4.08C26.6281 3.58933 26.7348 3.04 26.8521 2.432H29.6521V3.408H27.6281L27.4041 4.68C27.4681 4.61067 27.5615 4.55467 27.6841 4.512C27.8068 4.46933 27.9588 4.448 28.1401 4.448ZM39.1717 7H38.0997V4.648C38.0997 4.312 38.041 4.06667 37.9237 3.912C37.8064 3.75733 37.6464 3.68 37.4437 3.68C37.2357 3.68 37.0384 3.76267 36.8517 3.928C36.665 4.088 36.5317 4.29867 36.4517 4.56V7H35.3797V4.648C35.3797 4.312 35.321 4.06667 35.2037 3.912C35.0917 3.75733 34.9344 3.68 34.7317 3.68C34.5237 3.68 34.3237 3.76 34.1317 3.92C33.945 4.08 33.8117 4.29067 33.7317 4.552V7H32.6597V2.808H33.6277V3.584C33.7824 3.312 33.993 3.104 34.2597 2.96C34.5317 2.81067 34.841 2.736 35.1877 2.736C35.5397 2.736 35.809 2.82133 35.9957 2.992C36.1877 3.16267 36.313 3.37333 36.3717 3.624C36.5424 3.336 36.7584 3.11733 37.0197 2.968C37.281 2.81333 37.5797 2.736 37.9157 2.736C38.1717 2.736 38.3824 2.784 38.5477 2.88C38.713 2.976 38.841 3.10133 38.9317 3.256C39.0224 3.41067 39.0837 3.58667 39.1157 3.784C39.153 3.98133 39.1717 4.18133 39.1717 4.384V7Z" fill="#55328C"/>
<path d="M13.4551 19.104C14.3846 18.1366 14.9578 16.8243 14.9578 15.3801C14.9578 12.4134 12.5442 10 9.57769 10C6.61104 10 4.1975 12.4135 4.1975 15.3801C4.1975 16.8244 4.77071 18.1366 5.70014 19.104C2.50765 19.4014 0 22.0944 0 25.3633V36.2542C0 37.7194 1.19211 38.9116 2.65747 38.9116C3.00101 38.9116 3.32916 38.8454 3.63081 38.7262V51.939C2.96125 52.2559 2.49586 52.9362 2.49586 53.7248V55.0862C2.49586 56.1762 3.38262 57.063 4.47265 57.063H14.6828C15.7729 57.063 16.6596 56.1762 16.6596 55.0862V53.7248C16.6596 52.9364 16.1945 52.2562 15.5252 51.9392V46.3872C15.5252 45.922 15.1481 45.5449 14.6829 45.5449C14.2178 45.5449 13.8407 45.922 13.8407 46.3872V51.7475H10.42V40.9535H11.0525C11.5176 40.9535 11.8948 40.5764 11.8948 40.1113C11.8948 39.6461 11.5176 39.269 11.0525 39.269H8.10279C7.63762 39.269 7.2605 39.6461 7.2605 40.1113C7.2605 40.5764 7.63762 40.9535 8.10279 40.9535H8.73529V51.7475H5.31538V37.0963H13.8404V42.4565C13.8404 42.9217 14.2176 43.2988 14.6827 43.2988C15.1479 43.2988 15.525 42.9217 15.525 42.4565V38.7263C15.8265 38.8454 16.1545 38.9115 16.4978 38.9115C17.963 38.9115 19.1553 37.7194 19.1553 36.254V25.3632C19.1553 22.0944 16.6476 19.4014 13.4551 19.104ZM9.57769 11.6845C11.6155 11.6845 13.2732 13.3423 13.2732 15.38C13.2732 17.4177 11.6153 19.0756 9.57769 19.0756C7.53992 19.0756 5.88207 17.4177 5.88207 15.38C5.88207 13.3423 7.53992 11.6845 9.57769 11.6845ZM2.65747 37.2269C2.1211 37.2269 1.68457 36.7905 1.68457 36.254V28.5879H3.63025V36.254C3.63025 36.7905 3.19383 37.2269 2.65747 37.2269ZM4.18043 55.0861V53.7247C4.18043 53.5636 4.31149 53.4325 4.47265 53.4325H8.73551V55.3783H4.47254C4.31149 55.3783 4.18043 55.2472 4.18043 55.0861ZM14.9748 55.0861C14.9748 55.2472 14.8438 55.3783 14.6826 55.3783H10.42V53.4326H14.6827C14.8439 53.4326 14.9749 53.5637 14.9749 53.7248L14.9748 55.0861ZM16.4978 37.2269C15.9618 37.2269 15.5256 36.7911 15.525 36.2552V36.2539C15.525 36.2536 15.525 36.2533 15.525 36.2528V28.5879H17.4707V36.254C17.4707 36.7905 17.0343 37.2269 16.4978 37.2269ZM17.4707 26.9033H15.525V25.4767C15.525 25.0116 15.1479 24.6344 14.6827 24.6344C14.2176 24.6344 13.8404 25.0116 13.8404 25.4767V35.4116H5.31482V25.4767C5.31482 25.0116 4.9377 24.6344 4.47254 24.6344C4.00737 24.6344 3.63025 25.0116 3.63025 25.4767V26.9033H1.68457V25.3633C1.68457 22.8251 3.74952 20.7601 6.28772 20.7601H12.8675C15.4057 20.7601 17.4707 22.8251 17.4707 25.3633V26.9033Z" fill="#55328C"/>
<path d="M51.7999 19.104C52.7293 18.1366 53.3025 16.8243 53.3025 15.3801C53.3025 12.4134 50.889 10 47.9223 10C44.9557 10 42.5423 12.4135 42.5423 15.3801C42.5423 16.8244 43.1155 18.1366 44.0449 19.104C40.8524 19.4014 38.3448 22.0944 38.3448 25.3633L38.3442 29.4853C38.3442 29.9505 38.7213 30.3276 39.1865 30.3276C39.6517 30.3276 40.0288 29.9505 40.0288 29.4853V28.5879H41.975V36.2528V36.2539C41.975 36.5141 41.8739 36.7581 41.6894 36.942C41.5059 37.1254 41.262 37.2265 41.0025 37.2265C40.4655 37.2265 40.0288 36.7902 40.0288 36.2539V33.416C40.0288 32.9508 39.6517 32.5737 39.1865 32.5737C38.7213 32.5737 38.3442 32.9508 38.3442 33.416V36.2539C38.3442 37.7191 39.5367 38.9111 41.0025 38.9111C41.3408 38.9111 41.6693 38.8475 41.975 38.7274V51.9391C41.3058 52.2561 40.8406 52.9362 40.8406 53.7247V55.0861C40.8406 56.1761 41.7274 57.0629 42.8174 57.0629H53.0276C54.1176 57.0629 55.0044 56.1761 55.0044 55.0861V53.7247C55.0044 52.936 54.539 52.2558 53.8694 51.9389V46.3872C53.8694 45.922 53.4923 45.5449 53.0272 45.5449C52.562 45.5449 52.1849 45.922 52.1849 46.3872V51.7475H48.7649V40.9535H49.3974C49.8625 40.9535 50.2396 40.5764 50.2396 40.1113C50.2396 39.6461 49.8625 39.269 49.3974 39.269H46.4478C45.9826 39.269 45.6055 39.6461 45.6055 40.1113C45.6055 40.5764 45.9826 40.9535 46.4478 40.9535H47.0803V51.7475H43.6596V37.0963H52.1846V42.4565C52.1846 42.9217 52.5618 43.2988 53.0269 43.2988C53.4921 43.2988 53.8692 42.9217 53.8692 42.4565V38.7261C54.1709 38.8454 54.499 38.9115 54.8426 38.9115C56.3078 38.9115 57.5 37.7194 57.5 36.254V25.3632C57.5 22.0944 54.9924 19.4014 51.7999 19.104ZM47.9223 11.6845C49.9601 11.6845 51.618 13.3423 51.618 15.38C51.618 17.4177 49.9601 19.0756 47.9223 19.0756C45.8846 19.0756 44.2268 17.4177 44.2268 15.38C44.2268 13.3423 45.8847 11.6845 47.9223 11.6845ZM40.0293 26.9033V25.3633C40.0293 22.8251 42.0943 20.7601 44.6325 20.7601H51.2123C53.7505 20.7601 55.8155 22.8251 55.8155 25.3633V26.9033H53.8698V25.4767C53.8698 25.0116 53.4927 24.6344 53.0275 24.6344C52.5623 24.6344 52.1852 25.0116 52.1852 25.4767V35.4116H43.6596V25.4767C43.6596 25.0116 43.2825 24.6344 42.8173 24.6344C42.3521 24.6344 41.975 25.0116 41.975 25.4767V26.9033H40.0293ZM42.5252 55.0861V53.7247C42.5252 53.5636 42.6563 53.4325 42.8174 53.4325H47.0802V55.3783H42.8173C42.6563 55.3783 42.5252 55.2472 42.5252 55.0861ZM53.3196 55.0861C53.3196 55.2472 53.1885 55.3783 53.0274 55.3783H48.7645V53.4326H53.0274C53.1885 53.4326 53.3196 53.5637 53.3196 53.7248V55.0861ZM54.8426 37.2269C54.3062 37.2269 53.8697 36.7905 53.8697 36.254V28.5879H55.8155V36.254C55.8155 36.7905 55.379 37.2269 54.8426 37.2269Z" fill="#55328C"/>
<path d="M40.3498 14.7844L37.5137 11.9482C37.1848 11.6193 36.6514 11.6193 36.3226 11.9482C35.9937 12.2772 35.9937 12.8105 36.3226 13.1393L37.7209 14.5377H19.7792L21.1775 13.1393C21.5065 12.8104 21.5065 12.2771 21.1775 11.9482C20.8486 11.6193 20.3152 11.6193 19.9864 11.9482L17.1503 14.7844C16.8213 15.1133 16.8213 15.6467 17.1503 15.9755L19.9864 18.8116C20.1508 18.9762 20.3665 19.0584 20.582 19.0584C20.7975 19.0584 21.0131 18.9762 21.1775 18.8116C21.5065 18.4827 21.5065 17.9494 21.1775 17.6205L19.7792 16.2222H37.7209L36.3226 17.6205C35.9937 17.9495 35.9937 18.4828 36.3226 18.8116C36.487 18.9761 36.7026 19.0584 36.9182 19.0584C37.1337 19.0584 37.3493 18.9762 37.5137 18.8116L40.3498 15.9755C40.6788 15.6467 40.6788 15.1133 40.3498 14.7844Z" fill="#55328C"/>
</svg>
